<?xml version="1.0" encoding="iso-8859-1"?>
<!DOCTYPE svg PUBLIC "-//W3C//DTD SVG 1.1//EN" "http://www.w3.org/Graphics/SVG/1.1/DTD/svg11.dtd">
<svg version="1.1" viewBox="0 0 1000 1000" xmlns="http://www.w3.org/2000/svg" xmlns:xlink="http://www.w3.org/1999/xlink" x="0px" y="0px" style="enable-background: new 0 0 1000 1000" xml:space="preserve">
	<rect x="0" y="0" width="100%" height="100%" fill="#d8d8d8" />
	<path fill="none" stroke="white" stroke-width="25" stroke-linecap="round" d="M 300,300 h 400 a 50,50 0 0 1 50,50 v 300 a 50,50 0 0 1 -50,50 h -400 a 50,50 0 0 1 -50,-50 v -300 a 50,50 0 0 1 50,-50" />
	<path fill="white" stroke="white" stroke-width="25" stroke-linecap="round" d="M 312.5,650 h 375 a 12.5,12.5 0 0 0 12.5,-12.5 v -80 l -125,-125 l -140,140 l -50,-50 l -85,85 v 30 a 12.5,12.5 0 0 0 12.5,12.5" />
	<circle cx="400" cy="400" r="50" fill="white" />
</svg>
